<?xml version="1.0" encoding="utf-8"?>
<!-- Svg Vector Icons : http://www.onlinewebfonts.com/icon -->
<!DOCTYPE svg PUBLIC "-//W3C//DTD SVG 1.1//EN" "http://www.w3.org/Graphics/SVG/1.1/DTD/svg11.dtd">
<svg version="1.1" xmlns="http://www.w3.org/2000/svg" xmlns:xlink="http://www.w3.org/1999/xlink" x="0px" y="0px" viewBox="0 0 1000 1000" enable-background="new 0 0 1000 1000" xml:space="preserve">
<metadata> Svg Vector Icons : http://www.onlinewebfonts.com/icon </metadata>
<g><path d="M150.6,965.9c-32.2,32.2-84.3,32.2-116.5,0l0,0C2,933.6,2,881.7,34.1,849.3L849.4,34.2C881.6,2,933.7,2,965.9,34.2l0,0c32.2,32.2,32.2,84.3,0,116.5L150.6,965.9z"/><path d="M965.7,849.3c32.2,32.2,32.2,84.3,0,116.5l0,0c-32.2,32.2-84.3,32.2-116.4,0L34.1,150.6C2,118.3,2,66.4,34.1,34.2l0,0c32.2-32.3,84.3-32.3,116.5,0L965.7,849.3z"/></g>
</svg>